<?xml version="1.0" encoding="UTF-8"?>
<svg id="uuid-8c182dd8-be4e-42e3-b80f-18eb4e18b0b6" xmlns="http://www.w3.org/2000/svg" version="1.1" viewBox="0 0 818.1 262.8">
  <!-- Generator: Adobe Illustrator 30.0.0, SVG Export Plug-In . SVG Version: 2.1.1 Build 123)  -->
  <defs>
    <style>
      .st0 {
        fill: #4c2a86;
      }
    </style>
  </defs>
  <path class="st0" d="M113.9.7c20-1.8,40.4-.2,59.5,6.2,22.7,7.5,43.2,21.7,57.9,40.7,10.9,14,18.8,30.3,23,47.4,4.7,19,5.5,38.9,2.9,58.3-2.3,16.8-7.6,33.2-16.1,47.8-7.3,12.7-16.9,24.2-28.3,33.4-12.5,10.2-27.1,17.8-42.6,22.4-10.8,3.2-22,4.9-33.2,5.5-5.2.5-10.4.4-15.7,0-18.4-.9-36.8-5.2-53.3-13.5-14.5-7.2-27.6-17.3-38-29.7-10.4-12.3-18.3-26.7-23.4-42.1C.4,157.3-1.1,136.2.8,115.6c2.2-23.6,10.2-46.7,24.2-65.8C39.4,29.8,60.4,14.9,83.6,7.1c9.8-3.3,20-5.4,30.3-6.4ZM116.2,21c-6.1.6-12.1,1.6-18,3.1-17,4.3-33,13-45.5,25.4-8.6,8.5-15.5,18.7-20.6,29.6-8.4,18.2-11.4,38.5-10.6,58.5.6,17.8,4.7,35.6,13.2,51.3,6,11.2,14,21.4,23.9,29.6,8.3,6.9,17.8,12.4,28,16.3,17.2,6.6,36,8.4,54.3,7,17.2-1.3,34.3-6.4,48.9-15.6,13.9-8.5,25.3-20.8,33.1-35,9.2-16.4,13.6-35.3,14.2-54,.5-13-.7-26-3.9-38.6-4.5-17.6-13.2-34.2-25.9-47.2-10.7-10.9-24-19.2-38.4-24.3-16.9-6-35.1-7.6-52.8-6h0Z"/>
  <path class="st0" d="M673.3.7c19.9-1.8,40.2-.2,59.2,6.1,15.5,5.1,30,13.3,42.3,24,11.3,9.8,20.6,21.8,27.7,35,9,16.7,13.9,35.4,15.2,54.3,1.3,19.3-.5,39-6.6,57.4-5.2,15.8-13.5,30.7-24.5,43.2-9.8,11.3-21.9,20.6-35.1,27.4-15.1,7.9-31.9,12.4-48.9,13.8-6.9.5-13.8,1.1-20.8.5-8.9-.4-17.7-1.5-26.4-3.5-16.2-3.7-31.6-10.7-45.1-20.4-13.2-9.5-24.4-21.9-32.7-35.9-8.6-14.4-14.2-30.6-16.6-47.2-2.8-19.6-2.3-39.7,2.1-58.9,4.1-17.6,11.7-34.4,22.7-48.7,8.9-11.8,20.2-21.7,32.8-29.3,16.5-10,35.4-15.8,54.5-17.6ZM675.7,21c-6.7.6-13.3,1.8-19.8,3.6-15.7,4.3-30.4,12.3-42.3,23.5-12.6,11.8-21.6,27.2-26.9,43.6-5.8,18.2-7,37.6-4.9,56.5,2.1,18.8,8.7,37.3,19.8,52.7,9.7,13.6,23.1,24.4,38.3,31.3,17.7,8.2,37.5,10.9,56.8,9.8,17.8-.9,35.6-5.6,50.9-14.8,13.6-8,25.1-19.5,33.2-33.1,9.5-15.8,14.5-34,15.7-52.2.8-12.7.2-25.6-2.4-38.1-3.5-17.1-11-33.4-22.1-46.9-10.7-13-25-22.8-40.7-28.9-17.6-6.8-36.8-8.7-55.5-7h0Z"/>
  <path class="st0" d="M266.2,6h34c9.1,0,18.4,1.5,26.7,5.5,6.8,3.2,12.7,8.1,17.3,13.9,6.2,7.8,10.2,17.1,13.2,26.5,14.2,49,28.3,98,42.5,147.1,1,2.9,2,6,4.2,8.2,2.7,2.7,7.6,2.6,10.2-.2,2.2-2.3,3.1-5.4,4.1-8.3,13.6-47.2,27.3-94.3,40.9-141.5,3.8-14,9.7-28.3,20.7-38.2,4.7-4.2,10.2-7.5,16.2-9.6,7.1-2.5,14.7-3.4,22.2-3.5h33.5v19.9c-6.9,0-13.7,0-20.6,0-6,0-12-.2-18,.8-6.8,1.1-13.6,3.7-18.8,8.3-6.3,5.4-10.2,12.9-12.9,20.6-1.5,4.3-2.6,8.8-3.9,13.2-12.4,42.4-24.8,84.9-37.2,127.3-2.5,8.3-5.2,16.7-10,24-3.4,5.2-8.7,9.2-14.8,10.4-6.9,1.3-14.6.8-20.6-3-5.2-3.3-8.6-8.7-11.2-14.1-3.8-8.1-6.1-16.9-8.6-25.4-12.5-42.9-25-85.8-37.5-128.6-2.2-7.3-5.2-14.4-10.1-20.3-3.8-4.5-8.8-8-14.4-10-5.9-2.2-12.2-2.9-18.5-2.9h-28.4V6h0Z"/>
  <path class="st0" d="M124.5,30.1c16.6-.7,33.6,1.8,48.8,8.8,14.6,6.6,27.3,17.2,36.4,30.4,10.9,15.5,16.6,34.3,17.8,53.1,1.4,20.8-1.6,42.3-11.3,61-7,13.7-17.6,25.6-30.6,33.9-13.9,8.9-30.1,13.8-46.5,15-18.7,1.4-38-1.1-55-9.3-13.1-6.2-24.8-15.6-33.4-27.3-10.8-14.4-17-31.9-18.9-49.8-1.9-18.1-.4-36.8,5.8-54,6.2-17.2,17.1-32.8,32-43.5,15.8-11.6,35.4-17.6,54.9-18.2ZM122.6,50.6c-7.8.6-15.7,2.3-23,5.2-13.3,5.3-25,14.5-33,26.4-8.2,12-12.8,26.3-13.8,40.8-1.4,17.7,1.3,36.1,10,51.8,6.2,11.5,15.7,21.3,27.1,27.7,11.8,6.7,25.5,9.8,39,9.8,10.6.1,21.4-1.6,31.2-5.6,12.8-5.1,24.1-13.9,31.8-25.3,8.5-12.3,13.1-27,14.1-41.8,1.1-16.1-1-32.8-8.1-47.5-6.1-13-16.1-24.1-28.5-31.3-14-8.3-30.7-11.3-46.8-10h0Z"/>
  <path class="st0" d="M685.7,30c18.1-.5,36.5,2.9,52.5,11.6,14.3,7.7,26.4,19.4,34.6,33.5,9.6,16.1,14,35,14.3,53.7.5,19.5-3.2,39.4-12.7,56.6-7.5,13.9-18.9,25.8-32.6,33.7-15.9,9.4-34.6,13.6-53,13.4-18.4.1-37-4.1-52.8-13.6-13.6-8-24.8-19.7-32.5-33.4-8.2-14.6-12.3-31.2-13-47.9-.9-19.4,2.3-39.3,11.2-56.7,7.2-14.6,18.4-27.3,32.2-36,15.4-9.8,33.7-14.5,51.8-14.9h0ZM682,50.6c-6.2.5-12.3,1.6-18.2,3.5-14.4,4.6-27.3,13.7-36.2,25.9-8.3,11.3-13.3,24.8-15,38.7-1.4,11.5-1,23.3,1.5,34.6,3.2,14.3,10.2,27.9,20.7,38.2,11.1,10.9,25.8,17.6,41.1,19.7,16.8,2.3,34.5.4,49.7-7.5,12.4-6.2,22.8-16.3,29.5-28.5,8.8-15.6,11.7-33.9,10.4-51.6-.7-10-2.9-20-6.9-29.2-5.8-13.5-15.6-25.3-28.2-33-14.3-9-31.6-12.2-48.2-10.9h0Z"/>
  <path class="st0" d="M266.2,36.1h24.8c5.1,0,10.3,0,15.2,1.5,7,1.9,13.1,6.4,17,12.4,3.7,5.4,5.5,11.8,7.2,18.1,12.8,44.6,25.4,89.3,38.2,133.9,2.7,8.7,5.9,17.4,11.1,24.9,3.9,5.5,9.2,10.2,15.5,12.6,6.9,2.7,14.6,2.9,21.8,1.7,8.2-1.5,15.6-6.5,20.5-13.2,7.3-9.8,10.8-21.8,14.1-33.4,11.8-41.6,23.7-83.1,35.5-124.7,1.8-6.1,3.2-12.4,6.5-17.9,3.6-6.4,9.5-11.6,16.5-13.9,6-2.2,12.5-2.1,18.8-2h22.9v19.9c-8.1,0-16.2,0-24.3,0-4.3,0-8.8,1.1-12.1,4-4,3.3-6.1,8.3-7.6,13.2-10.3,35.5-20.5,71-30.8,106.5-2.9,10-5.7,20-8.7,29.9-4,12.6-9.1,25.3-17.8,35.5-5.6,6.6-13,11.7-21.2,14.4-6,2.1-12.3,2.7-18.5,3.3h-3.6c-2.2-.2-4.5-.5-6.7-.7-7.8-.9-15.5-3.3-22.1-7.5-7.1-4.5-12.9-11.1-17.2-18.2-8.1-13.5-12.2-28.8-16.5-43.8-11.5-39.9-23.1-79.8-34.6-119.6-1.5-5.2-4-10.5-8.5-13.6-3.7-2.7-8.4-3.3-12.9-3.2h-22.5v-19.9h0Z"/>
</svg>